<svg
  width="24"
  height="24"
  viewBox="0 0 24 24"
  fill="none"
  xmlns="http://www.w3.org/2000/svg"
>
  <path
    d="M12.0952 2.98926C12.1603 3.00153 12.2499 2.9994 12.3186 3.00134C12.4339 3.00408 12.5492 3.00921 12.6643 3.01709C13.0285 3.04476 13.391 3.09383 13.7494 3.16394C15.9842 3.6055 17.9683 4.87893 19.3004 6.72681C20.115 7.85169 20.6561 9.15097 20.881 10.5215C20.92 10.7554 20.9495 10.9909 20.9692 11.2272C20.9756 11.3096 20.9877 11.6097 21 11.6681V12.3188C20.9726 12.4713 20.9741 12.7056 20.9586 12.8707C20.9254 13.2155 20.8719 13.5582 20.7986 13.8969C20.328 16.0707 19.0683 17.993 17.2632 19.2926C16.1115 20.1253 14.7791 20.6706 13.377 20.8849L13.0957 20.9233V14.7424H15.5288C15.5726 14.455 15.6411 14.1264 15.694 13.8383L16.0323 11.9907H13.0957L13.0953 11.2407C13.0949 10.5952 13.1036 9.81879 13.6652 9.38074C14.1482 9.00387 14.85 9.00213 15.4351 9.01013C15.6763 9.01343 15.9402 9.01628 16.1788 9.04382V6.54773C15.6358 6.41093 14.7683 6.32687 14.2123 6.32434C13.0739 6.31919 11.7518 6.54568 10.9197 7.39368C9.71091 8.62576 9.82686 10.4113 9.82764 11.9907H7.97351V14.7424H9.82764L9.828 20.7245C8.71298 20.4478 7.66172 19.9589 6.73169 19.2845C4.88705 17.9526 3.61584 15.971 3.17468 13.739C3.10453 13.3804 3.05549 13.0179 3.02783 12.6536C3.01994 12.5385 3.01483 12.4232 3.01208 12.3079C3.01014 12.2392 3.01228 12.1496 3 12.0845V11.8962C3.00873 11.8593 3.01718 11.5166 3.02051 11.4557C3.03414 11.2165 3.05797 10.978 3.09155 10.7408C3.27324 9.4331 3.74209 8.18168 4.46448 7.07654C5.76441 5.08346 7.80065 3.68625 10.1279 3.19031C10.5035 3.11061 10.8838 3.05498 11.2665 3.02368C11.3822 3.01456 11.4981 3.00738 11.614 3.00281C11.6895 3.00039 11.8309 3.00559 11.8956 2.98926H12.0952Z"
    fill="#70737D"
  />
</svg>
