<svg
  width="24"
  height="24"
  viewBox="0 0 24 24"
  fill="none"
  xmlns="http://www.w3.org/2000/svg"
>
  <g clip-path="url(#clip0_3416_4920)">
    <path
      d="M8.27257 3.06294C7.31497 3.10812 6.66103 3.26094 6.08935 3.48558C5.49769 3.71616 4.99621 4.02558 4.49725 4.52634C3.99829 5.0271 3.69103 5.52894 3.46207 6.1215C3.24049 6.69444 3.09037 7.34892 3.04807 8.30706C3.00577 9.2652 2.99641 9.57318 3.00109 12.0172C3.00577 14.4613 3.01657 14.7676 3.06301 15.7277C3.10873 16.6852 3.26101 17.3389 3.48565 17.9108C3.71659 18.5024 4.02565 19.0037 4.52659 19.5029C5.02753 20.002 5.52901 20.3086 6.12301 20.5379C6.69541 20.7591 7.35007 20.9099 8.30803 20.9519C9.26599 20.9938 9.57433 21.0035 12.0177 20.9989C14.461 20.9942 14.7686 20.9834 15.7285 20.9378C16.6885 20.8923 17.3388 20.7389 17.9109 20.5154C18.5025 20.2839 19.0042 19.9754 19.503 19.4743C20.0017 18.9731 20.3088 18.4709 20.5376 17.878C20.7594 17.3056 20.91 16.651 20.9516 15.6937C20.9935 14.7331 21.0034 14.4263 20.9988 11.9827C20.9941 9.53898 20.9831 9.23262 20.9376 8.27286C20.892 7.3131 20.7396 6.66132 20.5151 6.0891C20.2838 5.49744 19.9751 4.9965 19.4743 4.497C18.9736 3.9975 18.471 3.6906 17.8783 3.46236C17.3055 3.24078 16.6512 3.08976 15.6933 3.04836C14.7353 3.00696 14.427 2.99634 11.9827 3.00102C9.53851 3.0057 9.23251 3.01614 8.27257 3.06294ZM8.37769 19.3328C7.50019 19.2946 7.02373 19.1488 6.70621 19.0268C6.28573 18.8648 5.98621 18.6689 5.66977 18.3556C5.35333 18.0422 5.15893 17.7416 4.99477 17.322C4.87147 17.0045 4.72297 16.5286 4.68193 15.6511C4.63729 14.7026 4.62793 14.4179 4.62271 12.0151C4.61749 9.61224 4.62667 9.32784 4.66825 8.37906C4.70569 7.50228 4.85239 7.02528 4.97425 6.70794C5.13625 6.28692 5.33137 5.98794 5.64547 5.67168C5.95957 5.35542 6.25927 5.16066 6.67921 4.9965C6.99637 4.87266 7.47229 4.72542 8.34943 4.68366C9.29857 4.63866 9.58297 4.62966 11.9854 4.62444C14.3879 4.61922 14.673 4.62822 15.6225 4.66998C16.4993 4.70814 16.9765 4.8534 17.2935 4.97598C17.7141 5.13798 18.0135 5.33256 18.3297 5.6472C18.646 5.96184 18.8409 6.26046 19.0051 6.6813C19.1291 6.99756 19.2763 7.4733 19.3177 8.35098C19.3629 9.30012 19.3732 9.5847 19.3775 11.987C19.3818 14.3893 19.3734 14.6746 19.3318 15.623C19.2934 16.5005 19.148 16.9771 19.0258 17.295C18.8638 17.7153 18.6685 18.015 18.3542 18.3311C18.0399 18.6472 17.7406 18.8419 17.3205 19.0061C17.0037 19.1297 16.5272 19.2773 15.6508 19.3191C14.7016 19.3637 14.4172 19.3731 12.0139 19.3783C9.61051 19.3835 9.32701 19.3738 8.37787 19.3328M15.7147 7.1898C15.715 7.40342 15.7787 7.61214 15.8977 7.78955C16.0167 7.96697 16.1856 8.10511 16.3831 8.18651C16.5806 8.26792 16.7978 8.28892 17.0073 8.24687C17.2167 8.20482 17.409 8.1016 17.5597 7.95028C17.7105 7.79895 17.813 7.60631 17.8543 7.39671C17.8956 7.18712 17.8738 6.96999 17.7917 6.77279C17.7095 6.57559 17.5708 6.40717 17.3929 6.28884C17.2151 6.17051 17.0061 6.10758 16.7925 6.108C16.5061 6.10858 16.2317 6.22286 16.0296 6.42573C15.8275 6.62859 15.7142 6.90343 15.7147 7.1898ZM7.37887 12.0089C7.38391 14.5613 9.45679 16.6258 12.0087 16.6209C14.5605 16.616 16.6264 14.5433 16.6215 11.9909C16.6167 9.43854 14.5432 7.37358 11.991 7.37862C9.43879 7.38366 7.37401 9.4569 7.37887 12.0089ZM8.99995 12.0057C8.99878 11.4123 9.17358 10.832 9.50226 10.338C9.83093 9.84396 10.2987 9.4585 10.8465 9.23035C11.3942 9.0022 11.9973 8.9416 12.5795 9.0562C13.1616 9.17081 13.6968 9.45548 14.1172 9.87421C14.5376 10.2929 14.8243 10.8269 14.9413 11.4087C15.0582 11.9904 15 12.5937 14.774 13.1424C14.548 13.691 14.1644 14.1603 13.6717 14.4909C13.179 14.8215 12.5993 14.9986 12.006 14.9998C11.612 15.0007 11.2217 14.9239 10.8574 14.7738C10.4931 14.6238 10.1619 14.4035 9.88274 14.1254C9.6036 13.8474 9.38197 13.5171 9.2305 13.1534C9.07903 12.7897 9.00069 12.3997 8.99995 12.0057Z"
      fill="#70737D"
    />
  </g>
  <defs>
    <clipPath id="clip0_3416_4920">
      <rect width="18" height="18" fill="white" transform="translate(3 3)" />
    </clipPath>
  </defs>
</svg>
