<svg
  width="24"
  height="24"
  viewBox="0 0 24 24"
  fill="none"
  xmlns="http://www.w3.org/2000/svg"
>
  <path
    d="M3 5.42005C3 4.84284 3.20271 4.36665 3.60811 3.99148C4.01351 3.6163 4.54055 3.42871 5.18919 3.42871C5.82626 3.42871 6.34169 3.6134 6.73552 3.98282C7.14092 4.36378 7.34363 4.86016 7.34363 5.472C7.34363 6.02611 7.14672 6.48786 6.7529 6.85728C6.3475 7.23823 5.81467 7.42871 5.15444 7.42871H5.13707C4.49999 7.42871 3.98456 7.23823 3.59073 6.85728C3.19691 6.47633 3 5.99725 3 5.42005ZM3.22587 20.5716V9.00447H7.08301V20.5716H3.22587ZM9.22008 20.5716H13.0772V14.1127C13.0772 13.7086 13.1236 13.3969 13.2162 13.1776C13.3784 12.7851 13.6245 12.4532 13.9546 12.182C14.2847 11.9107 14.6988 11.775 15.1969 11.775C16.4942 11.775 17.1429 12.6466 17.1429 14.3897V20.5716H21V13.9395C21 12.231 20.5946 10.9352 19.7838 10.0521C18.973 9.16897 17.9015 8.72741 16.5695 8.72741C15.0753 8.72741 13.9112 9.3681 13.0772 10.6495V10.6841H13.0598L13.0772 10.6495V9.00447H9.22008C9.24324 9.37387 9.25483 10.5225 9.25483 12.4504C9.25483 14.3782 9.24324 17.0853 9.22008 20.5716Z"
    fill="#70737D"
  />
</svg>
