<svg
  width="24"
  height="24"
  viewBox="0 0 24 24"
  fill="none"
  xmlns="http://www.w3.org/2000/svg"
>
  <path
    d="M12 3C16.9706 3 21 7.02944 21 12C21 16.9706 16.9706 21 12 21C11.035 21 10.1059 20.8466 9.23438 20.5654C9.29994 20.4764 9.37644 20.3684 9.46191 20.2422C9.55515 20.1046 9.64993 19.9562 9.74316 19.7979C9.83637 19.6395 9.93121 19.4725 10.0244 19.2949C10.1176 19.1175 10.2048 18.9325 10.2832 18.7402C10.3616 18.5478 10.4267 18.3579 10.4756 18.1699L11.0674 15.832C11.2257 16.128 11.5004 16.3797 11.8896 16.5869C12.2787 16.7939 12.6959 16.8974 13.1396 16.8975C14.4908 16.8975 15.5934 16.3466 16.4473 15.2471C17.3012 14.1475 17.7275 12.7535 17.7275 11.0664C17.7275 9.75374 17.2241 8.61383 16.2178 7.64746C15.2115 6.68128 13.924 6.19728 12.3555 6.19727C11.3892 6.19727 10.5085 6.36003 9.71387 6.68555C8.91915 7.01113 8.27841 7.43657 7.79004 7.95898C7.30179 8.48128 6.92696 9.0491 6.66504 9.66016C6.40309 10.2714 6.27246 10.8892 6.27246 11.5107C6.2725 12.2802 6.41846 12.9532 6.70996 13.5303C7.0015 14.1074 7.43792 14.5142 8.01953 14.751C8.11849 14.7908 8.20684 14.7927 8.28516 14.7588C8.36359 14.7248 8.41435 14.652 8.43359 14.5439C8.45283 14.495 8.4826 14.3813 8.52246 14.2041C8.56242 14.0265 8.59209 13.9121 8.61133 13.8633C8.66006 13.6961 8.62185 13.5376 8.49316 13.3896C8.11877 12.9353 7.93069 12.3792 7.93066 11.7178C7.93066 10.6035 8.31796 9.64579 9.0918 8.84668C9.8657 8.04762 10.8752 7.64756 12.1182 7.64746C13.2325 7.64746 14.1021 7.95085 14.7236 8.55762C15.3451 9.16431 15.6552 9.94597 15.6553 10.9033C15.6553 12.1567 15.4011 13.224 14.8936 14.1074C14.3859 14.9909 13.7418 15.4326 12.9619 15.4326C12.5077 15.4326 12.1448 15.2689 11.874 14.9434C11.6035 14.6179 11.5161 14.2328 11.6152 13.7891C11.6744 13.5227 11.7736 13.1751 11.9111 12.7461C12.0488 12.3169 12.1598 11.9365 12.2441 11.6064C12.3285 11.2765 12.3701 10.9969 12.3701 10.7705C12.3701 10.405 12.2692 10.1016 12.0664 9.86035C11.8637 9.61925 11.5813 9.49805 11.2158 9.49805C10.7615 9.49806 10.3748 9.70815 10.0537 10.127C9.73275 10.5457 9.57324 11.0714 9.57324 11.7031L9.58789 11.9248C9.58789 12.0624 9.61329 12.2429 9.66211 12.4648C9.71095 12.6868 9.77606 12.8768 9.85449 13.0352C9.23298 15.6588 8.86682 17.2038 8.75879 17.667C8.70999 17.8844 8.67359 18.1211 8.64844 18.377C8.62328 18.6329 8.60796 18.8685 8.60352 19.0801C8.59908 19.2915 8.60339 19.512 8.61816 19.7383C8.63296 19.9647 8.64829 20.1504 8.66309 20.2939C8.66542 20.3166 8.66758 20.3391 8.66992 20.3613C5.34829 19.0373 3 15.7938 3 12C3 7.02944 7.02944 3 12 3Z"
    fill="#70737D"
  />
</svg>
