<svg
  width="24"
  height="24"
  viewBox="0 0 24 24"
  fill="none"
  xmlns="http://www.w3.org/2000/svg"
>
  <g clip-path="url(#clip0_3416_4915)">
    <path
      d="M12 3C16.9704 3 21 7.02961 21 12C21 16.9704 16.9704 21 12 21H4.30371C3.82277 21 3.58156 20.4184 3.92188 20.0781L5.63574 18.3643C4.0073 16.7358 3 14.4855 3 12C3 7.02961 7.02961 3 12 3ZM15.291 5.39941C14.5669 5.39941 13.963 5.91213 13.8223 6.59473C12.6095 6.72479 11.6623 7.75351 11.6621 9V9.00781C10.3431 9.06336 9.13884 9.43955 8.18262 10.0322C7.82754 9.7573 7.38121 9.59277 6.89746 9.59277C5.73676 9.59282 4.7961 10.5337 4.7959 11.6943C4.7959 12.5366 5.29092 13.2622 6.00586 13.5977C6.07547 16.0374 8.73387 17.9998 12.0039 18C15.2741 18 17.9368 16.0357 18.0029 13.5938C18.7123 13.2562 19.2031 12.5326 19.2031 11.6953C19.2031 10.5346 18.2623 9.5939 17.1016 9.59375C16.6199 9.59375 16.1757 9.75648 15.8213 10.0293C14.8566 9.43238 13.639 9.05676 12.3066 9.00684V9.00098C12.3067 8.10803 12.9704 7.36676 13.8311 7.24512V7.24414C13.9872 7.90568 14.5816 8.39844 15.291 8.39844C16.1192 8.39829 16.79 7.72663 16.79 6.89844C16.7899 6.07036 16.1191 5.39956 15.291 5.39941ZM12.0039 14.6904C12.7343 14.6904 13.4336 14.7266 14.0811 14.792C14.1914 14.8032 14.2616 14.9179 14.2188 15.0205C13.8566 15.886 13.0016 16.4941 12.0039 16.4941C11.0064 16.494 10.1518 15.8859 9.78906 15.0205C9.74629 14.9179 9.81739 14.8032 9.92773 14.792C10.5744 14.7266 11.2737 14.6904 12.0039 14.6904ZM9.22754 11.6816C9.81603 11.6816 10.2666 12.2994 10.2314 13.0615C10.1963 13.8237 9.75621 14.1006 9.16699 14.1006C8.57787 14.1005 8.0625 13.7904 8.09766 13.0283C8.13289 12.2663 8.63914 11.6817 9.22754 11.6816ZM14.7812 11.6816C15.3704 11.6816 15.8766 12.2662 15.9111 13.0283C15.9463 13.7905 15.4303 14.1006 14.8418 14.1006C14.2535 14.1005 13.8135 13.8243 13.7783 13.0615C13.7432 12.2995 14.1923 11.6819 14.7812 11.6816Z"
      fill="#70737D"
    />
  </g>
  <defs>
    <clipPath id="clip0_3416_4915">
      <rect width="18" height="18" fill="white" transform="translate(3 3)" />
    </clipPath>
  </defs>
</svg>
