<svg
  width="24"
  height="24"
  viewBox="0 0 24 24"
  fill="none"
  xmlns="http://www.w3.org/2000/svg"
>
  <path
    fill-rule="evenodd"
    clip-rule="evenodd"
    d="M7.79998 4.23716C8.58512 4.20251 9.61306 4.23502 10.423 4.23521H18.4738C18.9931 4.23469 19.6803 4.19143 20.1652 4.28696C20.8196 4.41587 21.1257 5.09198 20.9523 5.69517C20.6127 6.87646 20.2241 8.0119 19.8185 9.1688C19.6668 9.60151 19.5715 10.0536 19.4211 10.4872C19.1554 11.2305 18.9019 11.9553 18.6838 12.7147C18.5246 13.2689 18.3026 13.8238 18.1252 14.3758C17.9755 14.7213 17.8954 15.221 17.6769 15.5243C17.108 16.3138 16.1851 16.295 15.3869 16.2918L13.9523 16.286C12.9684 16.282 13.0451 16.2783 12.1896 16.8026C11.9039 16.9711 11.6219 17.1626 11.339 17.3456C10.562 17.8481 9.68866 18.316 8.92205 18.8251C8.42545 19.1547 7.85016 19.4503 7.38787 19.7792C7.86369 18.7892 8.1086 17.2874 8.57244 16.2938C7.55099 16.2758 6.5354 16.3102 5.50311 16.2918C4.64194 16.2766 3.17893 16.5356 3.00897 15.3299C2.95275 14.9304 3.17495 14.4681 3.28338 14.0858C3.55194 13.1385 3.9065 12.2162 4.21307 11.2811L5.06658 8.67271C5.24427 8.11541 6.07425 5.3089 6.34686 4.98618C6.73136 4.53106 7.20755 4.27903 7.79998 4.23716ZM16.5549 5.53111C15.9017 5.52074 15.0379 5.49562 14.3957 5.53013C14.2869 5.78579 13.7848 6.37264 13.5871 6.63657C12.16 6.70804 11.1027 6.37625 10.0109 7.57896C9.65971 7.96586 9.48032 8.53992 9.50701 9.0604C9.52844 9.47708 9.66756 9.9191 9.98553 10.204C10.355 10.5349 10.8761 10.7441 11.3264 10.9452C11.4887 11.0177 11.6697 11.0833 11.8166 11.1844C11.8907 11.2355 11.9807 11.3126 11.9894 11.409C11.9958 11.48 11.936 11.6004 11.8859 11.6502C11.8035 11.7322 11.6433 11.7569 11.5334 11.7684C11.1548 11.8078 10.7426 11.7738 10.3605 11.7733C9.75904 11.7724 9.15804 11.7888 8.55682 11.7899C8.30009 11.7904 7.84131 11.7246 7.61248 11.8397C7.46847 11.9126 6.2124 13.6078 6.12811 13.8036C6.74541 13.8192 7.54322 13.8321 8.15838 13.8016C7.96402 14.095 7.5862 14.654 7.33416 14.8827C7.75324 14.8762 9.29074 14.9436 9.55291 14.7958C9.74103 14.5124 10.069 13.8532 10.4347 13.8299C11.4626 13.7644 12.3223 13.9979 13.2707 13.4383C14.2497 12.8605 14.604 12.079 14.4289 10.952C14.3156 10.2599 13.6952 9.95108 13.1418 9.66001C12.8076 9.48427 11.7206 9.30825 12.1027 8.75669C12.2302 8.57299 13.2245 8.62381 13.4797 8.62388C14.145 8.62719 14.8106 8.62195 15.4758 8.60923C15.7549 8.60539 16.0944 8.61849 16.3654 8.59654C16.5567 8.45146 16.6588 8.31589 16.7961 8.119C17.149 7.6129 17.5345 7.13069 17.9113 6.64243C17.1723 6.61581 16.429 6.65601 15.6818 6.6395C15.8507 6.47251 15.9867 6.21792 16.1291 6.02036C16.2724 5.82154 16.3932 5.70704 16.5549 5.53111Z"
    fill="#70737D"
  />
</svg>
