<svg
  width="24"
  height="24"
  viewBox="0 0 24 24"
  fill="none"
  xmlns="http://www.w3.org/2000/svg"
>
  <path
    d="M4.10355 11.0399C4.10355 11.0399 12.0645 7.77267 14.8255 6.62222C15.8839 6.16208 19.4733 4.68949 19.4733 4.68949C19.4733 4.68949 21.1299 4.04529 20.9918 5.60984C20.9458 6.2541 20.5777 8.5089 20.2095 10.9478C19.6573 14.3991 19.0591 18.1725 19.0591 18.1725C19.0591 18.1725 18.9671 19.2309 18.1848 19.415C17.4025 19.599 16.114 18.7708 15.8839 18.5867C15.6998 18.4487 12.4326 16.3778 11.2362 15.3655C10.9141 15.0894 10.5459 14.5372 11.2822 13.8929C12.9388 12.3744 14.9175 10.4877 16.114 9.29125C16.6662 8.73901 17.2184 7.45054 14.9175 9.01509C11.6504 11.27 8.42916 13.3867 8.42916 13.3867C8.42916 13.3867 7.69286 13.8469 6.31237 13.4327C4.93181 13.0186 3.32121 12.4664 3.32121 12.4664C3.32121 12.4664 2.21686 11.7761 4.10355 11.0399V11.0399Z"
    fill="#70737D"
  />
</svg>
