<svg
  width="24"
  height="24"
  viewBox="0 0 24 24"
  fill="none"
  xmlns="http://www.w3.org/2000/svg"
>
  <path
    d="M12.7178 2.74268C15.6168 2.74268 17.0665 2.74294 18.1738 3.30713C19.1476 3.80338 19.9393 4.59506 20.4355 5.56885C20.9997 6.67614 21 8.12589 21 11.0249V12.9741C21 15.873 20.9996 17.3229 20.4355 18.4302C19.9393 19.4041 19.1478 20.1966 18.1738 20.6929C17.0665 21.2571 15.6168 21.2573 12.7178 21.2573H11.2822C8.38322 21.2573 6.93346 21.2571 5.82617 20.6929C4.85222 20.1966 4.06072 19.4041 3.56445 18.4302C3.00036 17.3229 3 15.873 3 12.9741V11.0249C3 8.12589 3.00026 6.67614 3.56445 5.56885C4.0607 4.59506 4.85238 3.80338 5.82617 3.30713C6.93346 2.74294 8.38322 2.74268 11.2822 2.74268H12.7178ZM11.0303 5.82861C11.0022 5.82861 10.9533 5.85329 10.9463 5.9165C10.8466 6.83868 10.4221 8.4578 8.65723 9.10498V10.6323H9.83496V14.4976C9.83517 15.8209 10.7953 17.7001 13.3291 17.6558C14.1838 17.6408 15.1328 17.2775 15.3428 16.9634L14.7832 15.2769C14.5668 15.3817 14.1531 15.4731 13.8447 15.481C12.9138 15.5061 12.7331 14.8154 12.7256 14.3149V10.6323H15.0615V8.84131H12.7334V5.82861H11.0303Z"
    fill="#70737D"
  />
</svg>
