<svg width="16" height="16" viewBox="0 0 16 16" fill="none" xmlns="http://www.w3.org/2000/svg">
<rect width="16" height="16" fill="white"/>
<path d="M10.3782 9.86035H9.37781L10.1746 6.10843H11.8656L12.3281 8.9902H12.368L12.9209 6.10843H13.9199L13.1248 9.86035H11.4182L10.9699 6.97907H10.9303L10.3782 9.86035Z" fill="#2088C9"/>
<path d="M9.32261 6.11689C9.32261 6.11689 8.62696 6.11689 8.43827 6.11689C7.3581 6.11689 6.66744 6.29312 6.40899 7.51205L6.20645 8.46332C5.92092 9.80909 6.63863 9.86816 7.63973 9.86816C7.79418 9.86816 8.9915 9.86816 8.9915 9.86816L9.17774 9.00343H7.82446C7.78849 9.00343 7.75258 9.00343 7.71695 9.00343C7.12777 9.00343 7.1477 8.79265 7.26479 8.24263L7.38659 7.6691C7.49837 7.14259 7.58914 6.9716 8.14777 6.9716C8.18049 6.9716 8.21752 6.9716 8.25706 6.9716H9.12114L9.32261 6.11689Z" fill="#2088C9"/>
<path d="M3.01472 9.8916L3.80709 7.70624C3.96826 7.19982 3.9909 7.01606 4.49803 7.01606C4.52809 7.01606 4.56139 7.01606 4.59741 7.01606L5.62831 7.01302L5.79727 6.16903C5.79727 6.16903 4.93336 6.17006 4.76194 6.17006C3.78098 6.17006 3.31984 6.33171 2.91934 7.55092L2.07996 9.88721" fill="#2088C9"/>
<path d="M4.44348 9.88965L5.1375 6.16968H6.04507L5.32608 9.88965" fill="#2088C9"/>
<path d="M4.67603 9.0332H3.29858L3.40376 8.36343H4.78142L4.67603 9.0332Z" fill="#2088C9"/>
</svg>
