<svg
  xmlns="http://www.w3.org/2000/svg"
  width="250"
  height="25"
  viewBox="0 0 250 25"
  fill="none"
>
  <g id="g8">
    <g id="g10">
      <path
        id="path12"
        d="M80.9103 23.919H75.3467L79.7765 3.05983H89.1805L91.7531 19.085H91.9759L95.049 3.05983H100.604L96.1804 23.919H86.6908L84.2012 7.90265H83.9803L80.9103 23.919Z"
        fill="#2088C9"
      />
      <path
        id="path14"
        d="M108.367 11.4208H116.715L115.891 15.2802H107.551L106.681 19.3377H116.634L115.661 23.9015H100.152L104.59 3.04466H117.232L116.264 7.60776H109.173L108.367 11.4208Z"
        fill="#2088C9"
      />
      <path
        id="path16"
        d="M240.376 11.4208H248.725L247.901 15.2802H239.563L238.694 19.3377H250.158L249.185 23.9015H232.168L236.599 3.04466H249.245L248.274 7.60776H241.185L240.376 11.4208Z"
        fill="#2088C9"
      />
      <path
        id="path18"
        d="M146.165 3.04447H151.757L142.713 23.9013L134.614 23.9101V10.8328H134.395L128.581 23.9013L120.567 23.9101V3.04447H126.204L125.8 19.1217H125.988L133.328 3.04447H139.108L139.412 19.1217H139.611L146.165 3.04447Z"
        fill="#2088C9"
      />
      <path
        id="path20"
        d="M197.611 3.04447H203.199L194.158 23.9013L186.058 23.9101V10.8328H185.839L180.028 23.9013L172.012 23.9101V3.04447H177.646L177.244 19.1217H177.434L184.773 3.04447H190.552L190.859 19.1217H191.053L197.611 3.04447Z"
        fill="#2088C9"
      />
      <path
        id="path22"
        d="M210.878 23.9015H216.44L217.808 17.3574L222.136 17.3183C224.358 17.3183 224.123 19.1085 223.651 20.9849L223.029 23.9015H228.596L229.484 19.6997C230.134 17.3183 229.973 15.0469 226.849 15.0469L226.895 14.8212C230.292 14.0155 231.135 12.8354 231.873 9.35249C232.975 4.15641 230.833 3.12595 226.041 3.04466H215.31L210.878 23.9015ZM218.881 12.5927L219.841 7.88173H224.158C225.983 7.88173 226.341 8.4128 225.955 10.2667C225.617 11.8934 225.588 12.5927 223.19 12.5927H218.881Z"
        fill="#2088C9"
      />
      <path
        id="path24"
        d="M150.302 19.3523C150.302 19.3523 158.111 19.5076 158.673 19.5076C161.264 19.5131 161.906 19.2738 162.515 17.6049C162.983 16.3238 162.123 15.7888 160.009 15.6602L158.817 15.5783C153.775 15.2101 151.116 13.9607 152.012 9.2885C153.17 3.3227 156.656 2.96065 162.074 2.96404C162.281 2.96404 168.17 3.18406 168.369 3.18406L167.448 7.72435C167.448 7.72435 161.635 7.49964 161.136 7.49964C158.156 7.49624 157.756 8.09729 157.544 9.26744C157.277 10.6518 158.35 11.1869 159.433 11.0999L161.689 11.262C166.364 11.5187 168.936 13.2311 168.112 17.2571C167.403 20.6785 166.856 24.0524 157.735 24.0398C157.49 24.0398 149.605 23.9069 149.366 23.9015L150.302 19.3523Z"
        fill="#2088C9"
      />
      <path
        id="path26"
        d="M207.133 23.919L201.637 23.9146L205.967 3.04451H211.431L207.133 23.919Z"
        fill="#2088C9"
      />
      <path
        id="path28"
        d="M52.0924 23.9282H45.8125L50.8142 0.37583H61.4296L64.333 18.4659H64.5829L68.054 0.37583H74.3254L69.334 23.9282H58.6209L55.8066 5.84119H55.5584L52.0924 23.9282Z"
        fill="#2088C9"
      />
      <path
        id="path30"
        d="M45.465 0.426489C45.465 0.426489 41.0982 0.426489 39.9136 0.426489C33.133 0.426489 28.7974 1.53276 27.175 9.18445L25.9036 15.156C24.1112 23.6039 28.6165 23.9748 34.9009 23.9748C35.8704 23.9748 43.3865 23.9748 43.3865 23.9748L44.5556 18.5465H36.0605C35.8347 18.5465 35.6093 18.5465 35.3856 18.5465C31.6871 18.5465 31.8122 17.2234 32.5472 13.7706L33.3118 10.1704C34.0135 6.86522 34.5833 5.79185 38.0901 5.79185C38.2955 5.79185 38.5279 5.79185 38.7761 5.79185H44.2003L45.465 0.426489Z"
        fill="#2088C9"
      />
      <path
        id="path32"
        d="M5.86788 24.1217L10.8419 10.4033C11.8537 7.22423 11.9958 6.0707 15.1793 6.0707C15.368 6.0707 15.577 6.0707 15.8031 6.0707L22.2745 6.05164L23.3352 0.753559C23.3352 0.753559 17.912 0.76 16.8359 0.76C10.6781 0.76 7.78326 1.77479 5.26919 9.42823L0 24.0941"
        fill="#2088C9"
      />
      <path
        id="path34"
        d="M14.8369 24.1137L19.1936 0.761925H24.8908L20.3774 24.1137"
        fill="#2088C9"
      />
      <path
        id="path36"
        d="M16.2972 18.7331H7.65039L8.31062 14.5287H16.9588L16.2972 18.7331Z"
        fill="#2088C9"
      />
    </g>
  </g>
</svg>
